STARTFONT 2.1
FONT myhand.r.19
SIZE 19 80 80
FONTBOUNDINGBOX 12 20 0 -5
STARTPROPERTIES 4
FONT_ASCENT 15
FONT_DESCENT 5
DEFAULT_CHAR 32
COPYRIGHT "Derived from a vfont"
ENDPROPERTIES
CHARS 128
STARTCHAR H00
ENCODING 0
SWIDTH 568 0
DWIDTH 12 0
BBX 12 20 0 -5
BITMAP
0000
0000
0000
0000
0000
0000
0000
0000
0000
0000
0000
0000
0000
0000
0000
0000
0000
0000
0000
0000
ENDCHAR
STARTCHAR H01
ENCODING 1
SWIDTH 568 0
DWIDTH 12 0
BBX 12 20 0 -5
BITMAP
0000
0000
0000
0000
0000
0000
0000
0000
0000
0000
0000
0000
0000
0000
0000
0000
0000
0000
0000
0000
ENDCHAR
STARTCHAR H02
ENCODING 2
SWIDTH 568 0
DWIDTH 12 0
BBX 12 20 0 -5
BITMAP
0000
0000
0000
0000
0000
0000
0000
0000
0000
0000
0000
0000
0000
0000
0000
0000
0000
0000
0000
0000
ENDCHAR
STARTCHAR H03
ENCODING 3
SWIDTH 568 0
DWIDTH 12 0
BBX 12 20 0 -5
BITMAP
0000
0000
0000
0000
0000
0000
0000
0000
0000
0000
0000
0000
0000
0000
0000
0000
0000
0000
0000
0000
ENDCHAR
STARTCHAR H04
ENCODING 4
SWIDTH 568 0
DWIDTH 12 0
BBX 12 20 0 -5
BITMAP
0000
0000
0000
0000
0000
0000
0000
0000
0000
0000
0000
0000
0000
0000
0000
0000
0000
0000
0000
0000
ENDCHAR
STARTCHAR H05
ENCODING 5
SWIDTH 568 0
DWIDTH 12 0
BBX 12 20 0 -5
BITMAP
0000
0000
0000
0000
0000
0000
0000
0000
0000
0000
0000
0000
0000
0000
0000
0000
0000
0000
0000
0000
ENDCHAR
STARTCHAR H06
ENCODING 6
SWIDTH 568 0
DWIDTH 12 0
BBX 12 20 0 -5
BITMAP
0000
0000
0000
0000
0000
0000
0000
0000
0000
0000
0000
0000
0000
0000
0000
0000
0000
0000
0000
0000
ENDCHAR
STARTCHAR H07
ENCODING 7
SWIDTH 568 0
DWIDTH 12 0
BBX 12 20 0 -5
BITMAP
0000
0000
0000
0000
0000
0000
0000
0000
0000
0000
0000
0000
0000
0000
0000
0000
0000
0000
0000
0000
ENDCHAR
STARTCHAR H08
ENCODING 8
SWIDTH 568 0
DWIDTH 12 0
BBX 12 20 0 -5
BITMAP
0000
0000
0000
0000
0000
0000
0000
0000
0000
0000
0000
0000
0000
0000
0000
0000
0000
0000
0000
0000
ENDCHAR
STARTCHAR H09
ENCODING 9
SWIDTH 568 0
DWIDTH 12 0
BBX 12 20 0 -5
BITMAP
0000
0000
0000
0000
0000
0000
0000
0000
0000
0000
0000
0000
0000
0000
0000
0000
0000
0000
0000
0000
ENDCHAR
STARTCHAR H0a
ENCODING 10
SWIDTH 568 0
DWIDTH 12 0
BBX 12 20 0 -5
BITMAP
0000
0000
0000
0000
0000
0000
0000
0000
0000
0000
0000
0000
0000
0000
0000
0000
0000
0000
0000
0000
ENDCHAR
STARTCHAR H0b
ENCODING 11
SWIDTH 568 0
DWIDTH 12 0
BBX 12 20 0 -5
BITMAP
0000
0000
0000
0000
0000
0000
0000
0000
0000
0000
0000
0000
0000
0000
0000
0000
0000
0000
0000
0000
ENDCHAR
STARTCHAR H0c
ENCODING 12
SWIDTH 568 0
DWIDTH 12 0
BBX 12 20 0 -5
BITMAP
0000
0000
0000
0000
0000
0000
0000
0000
0000
0000
0000
0000
0000
0000
0000
0000
0000
0000
0000
0000
ENDCHAR
STARTCHAR H0d
ENCODING 13
SWIDTH 568 0
DWIDTH 12 0
BBX 12 20 0 -5
BITMAP
0000
0000
0000
0000
0000
0000
0000
0000
0000
0000
0000
0000
0000
0000
0000
0000
0000
0000
0000
0000
ENDCHAR
STARTCHAR H0e
ENCODING 14
SWIDTH 568 0
DWIDTH 12 0
BBX 12 20 0 -5
BITMAP
0000
0000
0000
0000
0000
0000
0000
0000
0000
0000
0000
0000
0000
0000
0000
0000
0000
0000
0000
0000
ENDCHAR
STARTCHAR H0f
ENCODING 15
SWIDTH 568 0
DWIDTH 12 0
BBX 12 20 0 -5
BITMAP
0000
0000
0000
0000
0000
0000
0000
0000
0000
0000
0000
0000
0000
0000
0000
0000
0000
0000
0000
0000
ENDCHAR
STARTCHAR H10
ENCODING 16
SWIDTH 568 0
DWIDTH 12 0
BBX 12 20 0 -5
BITMAP
0000
0000
0000
0000
0000
0000
0000
0000
0000
0000
0000
0000
0000
0000
0000
0000
0000
0000
0000
0000
ENDCHAR
STARTCHAR H11
ENCODING 17
SWIDTH 568 0
DWIDTH 12 0
BBX 12 20 0 -5
BITMAP
0000
0000
0000
0000
0000
0000
0000
0000
0000
0000
0000
0000
0000
0000
0000
0000
0000
0000
0000
0000
ENDCHAR
STARTCHAR H12
ENCODING 18
SWIDTH 568 0
DWIDTH 12 0
BBX 12 20 0 -5
BITMAP
0000
0000
0000
0000
0000
0000
0000
0000
0000
0000
0000
0000
0000
0000
0000
0000
0000
0000
0000
0000
ENDCHAR
STARTCHAR H13
ENCODING 19
SWIDTH 568 0
DWIDTH 12 0
BBX 12 20 0 -5
BITMAP
0000
0000
0000
0000
0000
0000
0000
0000
0000
0000
0000
0000
0000
0000
0000
0000
0000
0000
0000
0000
ENDCHAR
STARTCHAR H14
ENCODING 20
SWIDTH 568 0
DWIDTH 12 0
BBX 12 20 0 -5
BITMAP
0000
0000
0000
0000
0000
0000
0000
0000
0000
0000
0000
0000
0000
0000
0000
0000
0000
0000
0000
0000
ENDCHAR
STARTCHAR H15
ENCODING 21
SWIDTH 568 0
DWIDTH 12 0
BBX 12 20 0 -5
BITMAP
0000
0000
0000
0000
0000
0000
0000
0000
0000
0000
0000
0000
0000
0000
0000
0000
0000
0000
0000
0000
ENDCHAR
STARTCHAR H16
ENCODING 22
SWIDTH 568 0
DWIDTH 12 0
BBX 12 20 0 -5
BITMAP
0000
0000
0000
0000
0000
0000
0000
0000
0000
0000
0000
0000
0000
0000
0000
0000
0000
0000
0000
0000
ENDCHAR
STARTCHAR H17
ENCODING 23
SWIDTH 568 0
DWIDTH 12 0
BBX 12 20 0 -5
BITMAP
0000
0000
0000
0000
0000
0000
0000
0000
0000
0000
0000
0000
0000
0000
0000
0000
0000
0000
0000
0000
ENDCHAR
STARTCHAR H18
ENCODING 24
SWIDTH 568 0
DWIDTH 12 0
BBX 12 20 0 -5
BITMAP
0000
0000
0000
0000
0000
0000
0000
0000
0000
0000
0000
0000
0000
0000
0000
0000
0000
0000
0000
0000
ENDCHAR
STARTCHAR H19
ENCODING 25
SWIDTH 568 0
DWIDTH 12 0
BBX 12 20 0 -5
BITMAP
0000
0000
0000
0000
0000
0000
0000
0000
0000
0000
0000
0000
0000
0000
0000
0000
0000
0000
0000
0000
ENDCHAR
STARTCHAR H1a
ENCODING 26
SWIDTH 568 0
DWIDTH 12 0
BBX 12 20 0 -5
BITMAP
0000
0000
0000
0000
0000
0000
0000
0000
0000
0000
0000
0000
0000
0000
0000
0000
0000
0000
0000
0000
ENDCHAR
STARTCHAR H1b
ENCODING 27
SWIDTH 568 0
DWIDTH 12 0
BBX 12 20 0 -5
BITMAP
0000
0000
0000
0000
0000
0000
0000
0000
0000
0000
0000
0000
0000
0000
0000
0000
0000
0000
0000
0000
ENDCHAR
STARTCHAR H1c
ENCODING 28
SWIDTH 568 0
DWIDTH 12 0
BBX 12 20 0 -5
BITMAP
0000
0000
0000
0000
0000
0000
0000
0000
0000
0000
0000
0000
0000
0000
0000
0000
0000
0000
0000
0000
ENDCHAR
STARTCHAR H1d
ENCODING 29
SWIDTH 568 0
DWIDTH 12 0
BBX 12 20 0 -5
BITMAP
0000
0000
0000
0000
0000
0000
0000
0000
0000
0000
0000
0000
0000
0000
0000
0000
0000
0000
0000
0000
ENDCHAR
STARTCHAR H1e
ENCODING 30
SWIDTH 568 0
DWIDTH 12 0
BBX 12 20 0 -5
BITMAP
0000
0000
0000
0000
0000
0000
0000
0000
0000
0000
0000
0000
0000
0000
0000
0000
0000
0000
0000
0000
ENDCHAR
STARTCHAR H1f
ENCODING 31
SWIDTH 568 0
DWIDTH 12 0
BBX 12 20 0 -5
BITMAP
0000
0000
0000
0000
0000
0000
0000
0000
0000
0000
0000
0000
0000
0000
0000
0000
0000
0000
0000
0000
ENDCHAR
STARTCHAR H20
ENCODING 32
SWIDTH 568 0
DWIDTH 12 0
BBX 12 20 0 -5
BITMAP
0000
0000
0000
0000
0000
0000
0000
0000
0000
0000
0000
0000
0000
0000
0000
0000
0000
0000
0000
0000
ENDCHAR
STARTCHAR H21
ENCODING 33
SWIDTH 568 0
DWIDTH 12 0
BBX 12 20 0 -5
BITMAP
0600
0600
0600
0600
0600
0600
0600
0600
0600
0600
0600
0000
0000
0600
0600
0000
0000
0000
0000
0000
ENDCHAR
STARTCHAR H22
ENCODING 34
SWIDTH 568 0
DWIDTH 12 0
BBX 12 20 0 -5
BITMAP
1980
1980
1980
1980
1980
1980
0000
0000
0000
0000
0000
0000
0000
0000
0000
0000
0000
0000
0000
0000
ENDCHAR
STARTCHAR H23
ENCODING 35
SWIDTH 568 0
DWIDTH 12 0
BBX 12 20 0 -5
BITMAP
0000
1000
2100
2100
a300
fa00
27f0
2200
2200
2200
ffe0
2110
2100
2100
0100
0000
0000
0000
0000
0000
ENDCHAR
STARTCHAR H24
ENCODING 36
SWIDTH 568 0
DWIDTH 12 0
BBX 12 20 0 -5
BITMAP
0400
1e00
3700
2480
64c0
6440
2400
3c00
0f00
0580
04c0
4440
6440
3dc0
0f00
0400
0400
0000
0000
0000
ENDCHAR
STARTCHAR H25
ENCODING 37
SWIDTH 568 0
DWIDTH 12 0
BBX 12 20 0 -5
BITMAP
0000
0380
0c40
f040
9040
9040
f080
0180
0300
0600
0c00
19e0
1220
2660
43c0
4000
0000
0000
0000
0000
ENDCHAR
STARTCHAR H26
ENCODING 38
SWIDTH 568 0
DWIDTH 12 0
BBX 12 20 0 -5
BITMAP
3800
2800
4800
4800
4800
6800
3800
0c00
0b00
0900
f980
8880
8880
4880
3880
0f80
0000
0000
0000
0000
ENDCHAR
STARTCHAR H27
ENCODING 39
SWIDTH 568 0
DWIDTH 12 0
BBX 12 20 0 -5
BITMAP
0c00
0600
0200
0200
0600
0c00
1800
1000
0000
0000
0000
0000
0000
0000
0000
0000
0000
0000
0000
0000
ENDCHAR
STARTCHAR H28
ENCODING 40
SWIDTH 568 0
DWIDTH 12 0
BBX 12 20 0 -5
BITMAP
0080
0300
0600
0400
0400
0800
0800
0800
0800
0800
0c00
0400
0600
0380
00c0
0000
0000
0000
0000
0000
ENDCHAR
STARTCHAR H29
ENCODING 41
SWIDTH 568 0
DWIDTH 12 0
BBX 12 20 0 -5
BITMAP
2000
3000
1800
0400
0600
0200
0200
0600
0400
0400
0c00
0800
1000
2000
0000
0000
0000
0000
0000
0000
ENDCHAR
STARTCHAR H2a
ENCODING 42
SWIDTH 568 0
DWIDTH 12 0
BBX 12 20 0 -5
BITMAP
0000
0000
0000
0400
8420
4440
2480
1500
0e00
fff0
0e00
1500
2480
4440
0420
0400
0000
0000
0000
0000
ENDCHAR
STARTCHAR H2b
ENCODING 43
SWIDTH 568 0
DWIDTH 12 0
BBX 12 20 0 -5
BITMAP
0000
0000
0000
0000
0000
0400
0400
0400
0400
7fc0
0400
0400
0400
0400
0400
0000
0000
0000
0000
0000
ENDCHAR
STARTCHAR H2c
ENCODING 44
SWIDTH 568 0
DWIDTH 12 0
BBX 12 20 0 -5
BITMAP
0000
0000
0000
0000
0000
0000
0000
0000
0000
0000
0000
0000
0c00
0600
0200
0200
0600
0c00
1800
1000
ENDCHAR
STARTCHAR H2d
ENCODING 45
SWIDTH 568 0
DWIDTH 12 0
BBX 12 20 0 -5
BITMAP
0000
0000
0000
0000
0000
0000
0000
0000
0000
7fe0
0000
0000
0000
0000
0000
0000
0000
0000
0000
0000
ENDCHAR
STARTCHAR H2e
ENCODING 46
SWIDTH 568 0
DWIDTH 12 0
BBX 12 20 0 -5
BITMAP
0000
0000
0000
0000
0000
0000
0000
0000
0000
0000
0000
0800
0e00
0c00
0400
0000
0000
0000
0000
0000
ENDCHAR
STARTCHAR H2f
ENCODING 47
SWIDTH 568 0
DWIDTH 12 0
BBX 12 20 0 -5
BITMAP
0040
0040
0080
0180
0300
0200
0600
0c00
0800
1000
3000
2000
6000
4000
4000
0000
0000
0000
0000
0000
ENDCHAR
STARTCHAR H30
ENCODING 48
SWIDTH 568 0
DWIDTH 12 0
BBX 12 20 0 -5
BITMAP
0e00
1780
3080
2080
4040
4040
4040
4040
4040
4040
4040
4040
4080
2080
2300
1c00
0c00
0000
0000
0000
ENDCHAR
STARTCHAR H31
ENCODING 49
SWIDTH 568 0
DWIDTH 12 0
BBX 12 20 0 -5
BITMAP
0000
0c00
0c00
1400
3400
6400
0400
0400
0400
0400
0400
0400
0400
0400
7fc0
0000
0000
0000
0000
0000
ENDCHAR
STARTCHAR H32
ENCODING 50
SWIDTH 568 0
DWIDTH 12 0
BBX 12 20 0 -5
BITMAP
0c00
3f80
60c0
4040
0040
0040
0040
0040
0040
0040
7080
9080
8880
8d10
bf30
e3e0
0100
0000
0000
0000
ENDCHAR
STARTCHAR H33
ENCODING 51
SWIDTH 568 0
DWIDTH 12 0
BBX 12 20 0 -5
BITMAP
0000
1f80
3040
4040
0040
00c0
0080
1f80
1f00
0100
0100
4100
4100
3100
1f00
0000
0000
0000
0000
0000
ENDCHAR
STARTCHAR H34
ENCODING 52
SWIDTH 568 0
DWIDTH 12 0
BBX 12 20 0 -5
BITMAP
0000
1100
1100
2100
2100
6100
4200
4200
7fe0
0200
0200
0200
0200
0200
0200
0000
0000
0000
0000
0000
ENDCHAR
STARTCHAR H35
ENCODING 53
SWIDTH 568 0
DWIDTH 12 0
BBX 12 20 0 -5
BITMAP
0000
0000
0000
07e0
0400
0400
0400
0400
0400
0600
0180
2080
2040
2040
30c0
1080
1d80
0600
0000
0000
ENDCHAR
STARTCHAR H36
ENCODING 54
SWIDTH 568 0
DWIDTH 12 0
BBX 12 20 0 -5
BITMAP
0300
0600
0400
0c00
1800
1000
1000
3000
20c0
4140
4340
4240
4240
44c0
6280
3f80
0600
0000
0000
0000
ENDCHAR
STARTCHAR H37
ENCODING 55
SWIDTH 568 0
DWIDTH 12 0
BBX 12 20 0 -5
BITMAP
1fe0
2060
4040
0040
00c0
0ff0
0180
0180
0100
0100
0300
0200
0200
0600
0400
0000
0000
0000
0000
0000
ENDCHAR
STARTCHAR H38
ENCODING 56
SWIDTH 568 0
DWIDTH 12 0
BBX 12 20 0 -5
BITMAP
1c00
3700
6080
6080
2080
2180
1f00
1c00
1c00
2200
2100
2100
2100
3100
1f00
0600
0000
0000
0000
0000
ENDCHAR
STARTCHAR H39
ENCODING 57
SWIDTH 568 0
DWIDTH 12 0
BBX 12 20 0 -5
BITMAP
0f00
1900
6180
c080
8080
c180
6700
1d00
0100
0100
0100
0100
0100
0100
0100
0100
0000
0000
0000
0000
ENDCHAR
STARTCHAR H3a
ENCODING 58
SWIDTH 568 0
DWIDTH 12 0
BBX 12 20 0 -5
BITMAP
0000
0000
0000
0000
0000
0000
0c00
0c00
0c00
0000
0000
0000
0c00
0c00
0c00
0000
0000
0000
0000
0000
ENDCHAR
STARTCHAR H3b
ENCODING 59
SWIDTH 568 0
DWIDTH 12 0
BBX 12 20 0 -5
BITMAP
0000
0000
0000
0000
0000
0000
0c00
0c00
0c00
0000
0000
0000
0c00
0200
0200
0200
0200
0c00
1800
0000
ENDCHAR
STARTCHAR H3c
ENCODING 60
SWIDTH 568 0
DWIDTH 12 0
BBX 12 20 0 -5
BITMAP
0000
0000
0000
0000
0000
0020
00c0
0300
0e00
3800
3800
0600
0100
0040
0020
0000
0000
0000
0000
0000
ENDCHAR
STARTCHAR H3d
ENCODING 61
SWIDTH 568 0
DWIDTH 12 0
BBX 12 20 0 -5
BITMAP
0000
0000
0000
0000
0000
0000
0000
7fc0
0000
0000
0000
7fc0
0000
0000
0000
0000
0000
0000
0000
0000
ENDCHAR
STARTCHAR H3e
ENCODING 62
SWIDTH 568 0
DWIDTH 12 0
BBX 12 20 0 -5
BITMAP
0000
0000
0000
0000
0000
4000
3000
1c00
0700
01c0
01c0
0700
1c00
3000
4000
0000
0000
0000
0000
0000
ENDCHAR
STARTCHAR H3f
ENCODING 63
SWIDTH 568 0
DWIDTH 12 0
BBX 12 20 0 -5
BITMAP
0e00
1100
1080
2080
2080
0080
0100
0e00
0800
0800
0800
0400
0400
0000
0400
0400
0000
0000
0000
0000
ENDCHAR
STARTCHAR H40
ENCODING 64
SWIDTH 568 0
DWIDTH 12 0
BBX 12 20 0 -5
BITMAP
0000
0000
0000
0000
0f80
3380
26c0
4440
4c40
4cc0
4380
4000
2020
3040
1cc0
0700
0000
0000
0000
0000
ENDCHAR
STARTCHAR H41
ENCODING 65
SWIDTH 568 0
DWIDTH 12 0
BBX 12 20 0 -5
BITMAP
0000
0700
0980
1880
3080
7080
b080
3f80
2080
2080
2080
2090
2090
60a0
60a0
2040
0000
0000
0000
0000
ENDCHAR
STARTCHAR H42
ENCODING 66
SWIDTH 568 0
DWIDTH 12 0
BBX 12 20 0 -5
BITMAP
0000
0000
3e00
2300
2180
2080
2080
e180
3700
3d80
2090
20b0
20e0
21c0
3100
3e00
0000
0000
0000
0000
ENDCHAR
STARTCHAR H43
ENCODING 67
SWIDTH 568 0
DWIDTH 12 0
BBX 12 20 0 -5
BITMAP
0000
0f00
18c0
2040
6040
4000
4000
4000
4000
4010
4030
2040
20c0
3180
1f00
0000
0000
0000
0000
0000
ENDCHAR
STARTCHAR H44
ENCODING 68
SWIDTH 568 0
DWIDTH 12 0
BBX 12 20 0 -5
BITMAP
0000
0000
1f00
3500
6580
58c0
4040
4040
4040
5040
f040
9e40
92c0
f180
3000
0000
0000
0000
0000
0000
ENDCHAR
STARTCHAR H45
ENCODING 69
SWIDTH 568 0
DWIDTH 12 0
BBX 12 20 0 -5
BITMAP
0000
07c0
08a0
18a0
10c0
1000
1e00
3200
3e00
2000
2010
2030
2020
2060
1fc0
0000
0000
0000
0000
0000
ENDCHAR
STARTCHAR H46
ENCODING 70
SWIDTH 568 0
DWIDTH 12 0
BBX 12 20 0 -5
BITMAP
0000
7800
4fe0
7000
0180
0100
0100
0100
0100
7fe0
4120
4120
4300
2200
3c00
0800
0000
0000
0000
0000
ENDCHAR
STARTCHAR H47
ENCODING 71
SWIDTH 568 0
DWIDTH 12 0
BBX 12 20 0 -5
BITMAP
0000
0300
0700
0510
0530
0620
03c0
7440
5440
4440
38c0
1e80
1380
1100
0000
0000
0000
0000
0000
0000
ENDCHAR
STARTCHAR H48
ENCODING 72
SWIDTH 568 0
DWIDTH 12 0
BBX 12 20 0 -5
BITMAP
0000
1080
1080
3080
3080
5090
dea0
19c0
1980
1f80
1180
1080
3080
2080
2080
0000
0000
0000
0000
0000
ENDCHAR
STARTCHAR H49
ENCODING 73
SWIDTH 568 0
DWIDTH 12 0
BBX 12 20 0 -5
BITMAP
0600
0780
0480
04c0
0440
0640
0240
6240
7240
5940
41c0
4080
2180
1fc0
0040
0000
0000
0000
0000
0000
ENDCHAR
STARTCHAR H4a
ENCODING 74
SWIDTH 568 0
DWIDTH 12 0
BBX 12 20 0 -5
BITMAP
0000
0700
0d80
1880
3080
2080
6080
4080
4080
6080
2090
18e0
0fc0
0180
0700
0900
1100
1100
1900
0e00
ENDCHAR
STARTCHAR H4b
ENCODING 75
SWIDTH 568 0
DWIDTH 12 0
BBX 12 20 0 -5
BITMAP
0000
3020
3040
5080
5100
9100
9e00
1200
1e00
1200
1100
1100
1080
1090
6060
0000
0000
0000
0000
0000
ENDCHAR
STARTCHAR H4c
ENCODING 76
SWIDTH 568 0
DWIDTH 12 0
BBX 12 20 0 -5
BITMAP
0000
01c0
0220
0240
0f80
1200
0200
0400
0400
7800
4c00
9210
d210
6120
00c0
0000
0000
0000
0000
0000
ENDCHAR
STARTCHAR H4d
ENCODING 77
SWIDTH 568 0
DWIDTH 12 0
BBX 12 20 0 -5
BITMAP
0000
38e0
28a0
68a0
a520
a520
a520
2520
2520
2520
2220
2220
2230
2030
2020
0000
0000
0000
0000
0000
ENDCHAR
STARTCHAR H4e
ENCODING 78
SWIDTH 568 0
DWIDTH 12 0
BBX 12 20 0 -5
BITMAP
0000
1300
1500
3880
5080
5040
9040
1040
1040
1040
1040
1050
1050
1060
1040
0000
0000
0000
0000
0000
ENDCHAR
STARTCHAR H4f
ENCODING 79
SWIDTH 568 0
DWIDTH 12 0
BBX 12 20 0 -5
BITMAP
0000
0800
1f00
23d0
2250
2370
21e0
4020
4020
4020
4020
4020
6020
20c0
3180
1f00
0000
0000
0000
0000
ENDCHAR
STARTCHAR H50
ENCODING 80
SWIDTH 568 0
DWIDTH 12 0
BBX 12 20 0 -5
BITMAP
0800
2f80
2840
5020
5020
9020
9040
3580
2e00
2000
2000
2000
4000
4000
4000
0000
0000
0000
0000
0000
ENDCHAR
STARTCHAR H51
ENCODING 81
SWIDTH 568 0
DWIDTH 12 0
BBX 12 20 0 -5
BITMAP
0000
1f80
1280
1280
1c80
0080
0080
0100
0100
0200
3a00
c610
8620
8e40
73c0
0000
0000
0000
0000
0000
ENDCHAR
STARTCHAR H52
ENCODING 82
SWIDTH 568 0
DWIDTH 12 0
BBX 12 20 0 -5
BITMAP
1e00
2100
2080
2040
2040
6040
a040
3880
2780
2200
2100
2100
2090
20d0
2060
0000
0000
0000
0000
0000
ENDCHAR
STARTCHAR H53
ENCODING 83
SWIDTH 568 0
DWIDTH 12 0
BBX 12 20 0 -5
BITMAP
0380
0680
0480
0480
0580
0700
c700
8d80
9880
d0c0
7040
2040
7040
d840
07c0
0000
0000
0000
0000
0000
ENDCHAR
STARTCHAR H54
ENCODING 84
SWIDTH 568 0
DWIDTH 12 0
BBX 12 20 0 -5
BITMAP
0000
7000
de30
a1e0
a000
6080
0080
0080
0080
0080
0080
f880
8080
4080
2100
1180
0f00
0000
0000
0000
ENDCHAR
STARTCHAR H55
ENCODING 85
SWIDTH 568 0
DWIDTH 12 0
BBX 12 20 0 -5
BITMAP
0000
3010
3020
5020
5040
9040
9040
1040
1040
1040
1040
1040
1040
1040
0f80
0000
0000
0000
0000
0000
ENDCHAR
STARTCHAR H56
ENCODING 86
SWIDTH 568 0
DWIDTH 12 0
BBX 12 20 0 -5
BITMAP
0000
2040
2040
6080
5080
9080
9100
1100
0900
0900
0a00
0a00
0600
0400
0400
0000
0000
0000
0000
0000
ENDCHAR
STARTCHAR H57
ENCODING 87
SWIDTH 568 0
DWIDTH 12 0
BBX 12 20 0 -5
BITMAP
0000
2010
2010
6020
6020
a020
2020
2020
2220
2220
2220
2220
2220
1540
0880
0000
0000
0000
0000
0000
ENDCHAR
STARTCHAR H58
ENCODING 88
SWIDTH 568 0
DWIDTH 12 0
BBX 12 20 0 -5
BITMAP
0000
0000
0000
7010
f820
ac40
a480
c700
0200
0700
0900
1080
2040
4030
8000
0000
0000
0000
0000
0000
ENDCHAR
STARTCHAR H59
ENCODING 89
SWIDTH 568 0
DWIDTH 12 0
BBX 12 20 0 -5
BITMAP
0000
0000
0810
1810
2810
2810
4820
4820
c820
8860
0440
03c0
00f0
0140
0380
0480
0880
0980
0f00
0000
ENDCHAR
STARTCHAR H5a
ENCODING 90
SWIDTH 568 0
DWIDTH 12 0
BBX 12 20 0 -5
BITMAP
0000
1e00
3180
40c0
4040
7040
5080
7100
0300
0200
0630
0de0
1180
0380
0c80
1880
1080
1b00
0600
0000
ENDCHAR
STARTCHAR H5b
ENCODING 91
SWIDTH 568 0
DWIDTH 12 0
BBX 12 20 0 -5
BITMAP
07c0
0400
0400
0400
0400
0400
0400
0400
0400
0400
0400
0400
0400
0400
07c0
0000
0000
0000
0000
0000
ENDCHAR
STARTCHAR H5c
ENCODING 92
SWIDTH 568 0
DWIDTH 12 0
BBX 12 20 0 -5
BITMAP
4000
6000
2000
1000
1000
0800
0800
0400
0200
0200
0100
0100
0080
0080
0040
0000
0000
0000
0000
0000
ENDCHAR
STARTCHAR H5d
ENCODING 93
SWIDTH 568 0
DWIDTH 12 0
BBX 12 20 0 -5
BITMAP
7c00
0400
0400
0400
0400
0400
0400
0400
0400
0400
0400
0400
0400
0400
7c00
0000
0000
0000
0000
0000
ENDCHAR
STARTCHAR H5e
ENCODING 94
SWIDTH 568 0
DWIDTH 12 0
BBX 12 20 0 -5
BITMAP
0000
0e00
1100
2080
4040
0000
0000
0000
0000
0000
0000
0000
0000
0000
0000
0000
0000
0000
0000
0000
ENDCHAR
STARTCHAR H5f
ENCODING 95
SWIDTH 568 0
DWIDTH 12 0
BBX 12 20 0 -5
BITMAP
0000
0000
0000
0000
0000
0000
0000
0000
0000
0000
0000
0000
0000
0000
0000
0000
fff0
fff0
0000
0000
ENDCHAR
STARTCHAR H60
ENCODING 96
SWIDTH 568 0
DWIDTH 12 0
BBX 12 20 0 -5
BITMAP
0100
0200
0400
0400
0400
0400
0200
0000
0000
0000
0000
0000
0000
0000
0000
0000
0000
0000
0000
0000
ENDCHAR
STARTCHAR H61
ENCODING 97
SWIDTH 568 0
DWIDTH 12 0
BBX 12 16 0 -1
BITMAP
0000
0000
0000
0000
0000
1c00
3300
6180
4080
8080
c080
4080
41c0
2360
1e30
0000
ENDCHAR
STARTCHAR H62
ENCODING 98
SWIDTH 568 0
DWIDTH 12 0
BBX 12 20 0 -5
BITMAP
0000
0c00
1e00
1200
1200
1200
1200
1470
1580
1e00
1980
1080
1080
3900
c600
0000
0000
0000
0000
0000
ENDCHAR
STARTCHAR H63
ENCODING 99
SWIDTH 568 0
DWIDTH 12 0
BBX 12 20 0 -5
BITMAP
0000
0000
0000
0000
0000
0780
0840
1040
1000
2000
2010
3020
5840
8d80
0600
0000
0000
0000
0000
0000
ENDCHAR
STARTCHAR H64
ENCODING 100
SWIDTH 568 0
DWIDTH 12 0
BBX 12 20 0 -5
BITMAP
0000
00c0
0120
0120
0120
0120
0120
01c0
0f80
1180
2100
6100
a310
a290
1c60
0000
0000
0000
0000
0000
ENDCHAR
STARTCHAR H65
ENCODING 101
SWIDTH 568 0
DWIDTH 12 0
BBX 12 20 0 -5
BITMAP
0000
0000
0000
0000
0000
0000
0f80
1880
1080
1080
1300
1e10
3830
cc60
0780
0000
0000
0000
0000
0000
ENDCHAR
STARTCHAR H66
ENCODING 102
SWIDTH 568 0
DWIDTH 12 0
BBX 12 20 0 -5
BITMAP
00e0
03a0
0620
0460
0c80
1180
1300
1e30
39c0
f600
2100
2100
2180
2080
2100
3100
1a00
0c00
0000
0000
ENDCHAR
STARTCHAR H67
ENCODING 103
SWIDTH 568 0
DWIDTH 12 0
BBX 12 20 0 -5
BITMAP
0000
0000
0000
0000
0000
0000
1f00
3100
2080
2180
2110
2330
1ee0
0380
0e00
1200
1200
1400
1c00
0000
ENDCHAR
STARTCHAR H68
ENCODING 104
SWIDTH 568 0
DWIDTH 12 0
BBX 12 20 0 -5
BITMAP
0000
0f00
1300
1200
1200
3600
2c00
3e00
6300
e100
2110
2130
2120
21e0
0000
0000
0000
0000
0000
0000
ENDCHAR
STARTCHAR H69
ENCODING 105
SWIDTH 568 0
DWIDTH 12 0
BBX 12 20 0 -5
BITMAP
0000
0000
0000
0200
0200
0000
0000
0200
0600
0400
0c10
0e10
9bb0
e0c0
0000
0000
0000
0000
0000
0000
ENDCHAR
STARTCHAR H6a
ENCODING 106
SWIDTH 568 0
DWIDTH 12 0
BBX 12 20 0 -5
BITMAP
0000
0080
0080
0000
0000
0080
0080
0080
0190
0370
07c0
7980
c300
0f00
1a00
1200
3200
3600
1c00
0000
ENDCHAR
STARTCHAR H6b
ENCODING 107
SWIDTH 568 0
DWIDTH 12 0
BBX 12 20 0 -5
BITMAP
0000
0c00
1400
2400
2400
2400
2400
2800
3e00
6100
e100
3e10
2820
2640
2180
0000
0000
0000
0000
0000
ENDCHAR
STARTCHAR H6c
ENCODING 108
SWIDTH 568 0
DWIDTH 12 0
BBX 12 20 0 -5
BITMAP
0000
0f00
0980
1080
1080
1080
1180
1100
1300
1e00
0c00
1e00
6310
c1e0
0000
0000
0000
0000
0000
0000
ENDCHAR
STARTCHAR H6d
ENCODING 109
SWIDTH 568 0
DWIDTH 12 0
BBX 12 20 0 -5
BITMAP
0000
0000
0000
0000
0000
0000
1000
3dc0
7240
d240
9240
1240
1250
1250
2260
0000
0000
0000
0000
0000
ENDCHAR
STARTCHAR H6e
ENCODING 110
SWIDTH 568 0
DWIDTH 12 0
BBX 12 20 0 -5
BITMAP
0000
0000
0000
0000
0000
0000
0f00
1980
9080
b080
7080
1080
1080
10d0
1070
1000
0000
0000
0000
0000
ENDCHAR
STARTCHAR H6f
ENCODING 111
SWIDTH 568 0
DWIDTH 12 0
BBX 12 20 0 -5
BITMAP
0000
0000
0000
0000
0000
0000
0000
0f10
10a0
20c0
2040
6040
7040
9180
8f00
0000
0000
0000
0000
0000
ENDCHAR
STARTCHAR H70
ENCODING 112
SWIDTH 568 0
DWIDTH 12 0
BBX 12 20 0 -5
BITMAP
0000
0000
0000
0000
0000
0f00
1080
1080
1040
1040
3890
5510
9320
11e0
1000
1000
1000
1000
1000
0000
ENDCHAR
STARTCHAR H71
ENCODING 113
SWIDTH 568 0
DWIDTH 12 0
BBX 12 20 0 -5
BITMAP
0000
0000
0000
0000
0000
0000
1c00
2200
4210
4220
4220
6340
3780
1ec0
0240
0240
0240
0240
02c0
0180
ENDCHAR
STARTCHAR H72
ENCODING 114
SWIDTH 568 0
DWIDTH 12 0
BBX 12 20 0 -5
BITMAP
0000
0000
0000
0000
2000
2100
3f00
2100
2100
4100
4100
c100
8100
80d0
8060
0000
0000
0000
0000
0000
ENDCHAR
STARTCHAR H73
ENCODING 115
SWIDTH 568 0
DWIDTH 12 0
BBX 12 20 0 -5
BITMAP
0000
0000
0000
0000
0000
0400
0c00
0c00
1200
2200
2100
6110
9110
8d30
03e0
0000
0000
0000
0000
0000
ENDCHAR
STARTCHAR H74
ENCODING 116
SWIDTH 568 0
DWIDTH 12 0
BBX 12 20 0 -5
BITMAP
0000
0200
0200
3fe0
1fc0
0700
0200
0600
0600
0e00
1a10
b110
a1b0
c0e0
0000
0000
0000
0000
0000
0000
ENDCHAR
STARTCHAR H75
ENCODING 117
SWIDTH 568 0
DWIDTH 12 0
BBX 12 20 0 -5
BITMAP
0000
0000
0000
0000
1000
3080
2080
2080
2080
2080
2090
3090
59f0
ce30
0000
0000
0000
0000
0000
0000
ENDCHAR
STARTCHAR H76
ENCODING 118
SWIDTH 568 0
DWIDTH 12 0
BBX 12 20 0 -5
BITMAP
0000
0000
0000
0000
0000
0000
8030
c040
6080
1180
1b00
0a00
0e00
0400
0400
0000
0000
0000
0000
0000
ENDCHAR
STARTCHAR H77
ENCODING 119
SWIDTH 568 0
DWIDTH 12 0
BBX 12 20 0 -5
BITMAP
0000
0000
0000
0000
0000
0000
2050
2270
2240
2240
2240
2240
6ec0
db80
8000
0000
0000
0000
0000
0000
ENDCHAR
STARTCHAR H78
ENCODING 120
SWIDTH 568 0
DWIDTH 12 0
BBX 12 20 0 -5
BITMAP
0000
0000
0000
0000
0000
0000
0e20
1a40
3280
6310
4210
4320
4520
c9a0
10e0
0000
0000
0000
0000
0000
ENDCHAR
STARTCHAR H79
ENCODING 121
SWIDTH 568 0
DWIDTH 12 0
BBX 12 20 0 -5
BITMAP
0000
0000
0000
0000
0000
1000
1080
1080
1080
1090
1190
3130
7fc0
c700
0900
0900
0900
0900
0700
0000
ENDCHAR
STARTCHAR H7a
ENCODING 122
SWIDTH 568 0
DWIDTH 12 0
BBX 12 20 0 -5
BITMAP
0000
0000
0000
0000
0000
0000
3000
5800
ce00
8b30
09e0
0180
0300
0700
0500
0900
1b00
1200
1600
0c00
ENDCHAR
STARTCHAR H7b
ENCODING 123
SWIDTH 568 0
DWIDTH 12 0
BBX 12 20 0 -5
BITMAP
00e0
0180
0300
0200
0200
0200
0200
0e00
0200
0200
0400
0400
0400
0600
0200
01c0
0000
0000
0000
0000
ENDCHAR
STARTCHAR H7c
ENCODING 124
SWIDTH 568 0
DWIDTH 12 0
BBX 12 20 0 -5
BITMAP
0600
0600
0600
0600
0600
0600
0600
0600
0600
0600
0600
0600
0600
0600
0600
0600
0600
0600
0600
0600
ENDCHAR
STARTCHAR H7d
ENCODING 125
SWIDTH 568 0
DWIDTH 12 0
BBX 12 20 0 -5
BITMAP
1800
0c00
0400
0400
0400
0400
0400
0400
0200
0700
0400
0400
0c00
0800
7000
0000
0000
0000
0000
0000
ENDCHAR
STARTCHAR H7e
ENCODING 126
SWIDTH 568 0
DWIDTH 12 0
BBX 12 20 0 -5
BITMAP
0000
0000
0000
0000
3800
6440
44c0
4280
0380
0000
0000
0000
0000
0000
0000
0000
0000
0000
0000
0000
ENDCHAR
STARTCHAR H7f
ENCODING 127
SWIDTH 568 0
DWIDTH 12 0
BBX 12 20 0 -5
BITMAP
0000
0000
0000
0000
0000
0000
0000
0000
0000
0000
0000
0000
0000
0000
0000
0000
0000
0000
0000
0000
ENDCHAR
ENDFONT
